# xmcd
#
# Track frame offsets: 
#        150
#        14109
#        27478
#        41794
#        55526
#        69226
#        83777
#        99518
#        113812
#        127556
#        142533
#        156712
#        172200
#        186048
#        201183
#        215470
#
# Disc length: 3043 seconds
#
# Revision: 0
# Processed by: cddbd v1.4b42PL1 Copyright (c) Steve Scherf et al.
# Submitted via: ExactAudioCopy v0.90a11
#
DISCID=db0be110
DTITLE=Bessie Smith - Nobody's Blues But Mine
DYEAR=1900
DGENRE=
TTITLE0=Woman's Trouble Blues
TTITLE1=Dying Gambler's Blues
TTITLE2=The St Louis Blues
TTITLE3=Reckless Blues
TTITLE4=Sobbin' Hearted Blues
TTITLE5=Cold In Hand Blues
TTITLE6=You've Been A Good Old Waggon
TTITLE7=Cake Walkin' Babies
TTITLE8=The Yellow Dog Blues
TTITLE9=Soft Pedal Blues
TTITLE10=Dixie Flyer Blues
TTITLE11=Careless Love Blues
TTITLE12=JC Holmes Blues
TTITLE13=I Ain't Gonna Play Second Fiddle
TTITLE14=He's Gone Blues
TTITLE15=Nobody's Blues But Mine
EXTD=
EXTT0=
EXTT1=
EXTT2=
EXTT3=
EXTT4=
EXTT5=
EXTT6=
EXTT7=
EXTT8=
EXTT9=
EXTT10=
EXTT11=
EXTT12=
EXTT13=
EXTT14=
EXTT15=
PLAYORDER=
